<svg width="1308" height="254" viewBox="0 0 1308 254" fill="none" xmlns="http://www.w3.org/2000/svg">
<g clip-path="url(#clip0_1_9696)">
<rect width="1308" height="264" fill="#20101F" fill-opacity="0.121569"/>
<path d="M82.1136 61V43.5455H88.2159C89.4318 43.5455 90.4347 43.7557 91.2244 44.1761C92.0142 44.5909 92.6023 45.1506 92.9886 45.8551C93.375 46.554 93.5682 47.3295 93.5682 48.1818C93.5682 48.9318 93.4347 49.5511 93.1676 50.0398C92.9063 50.5284 92.5597 50.9148 92.1278 51.1989C91.7017 51.483 91.2386 51.6932 90.7386 51.8295V52C91.2727 52.0341 91.8097 52.2216 92.3494 52.5625C92.8892 52.9034 93.3409 53.392 93.7045 54.0284C94.0682 54.6648 94.25 55.4432 94.25 56.3636C94.25 57.2386 94.0511 58.0256 93.6534 58.7244C93.2557 59.4233 92.6278 59.9773 91.7699 60.3864C90.9119 60.7955 89.7955 61 88.4205 61H82.1136ZM84.2273 59.125H88.4205C89.8011 59.125 90.7813 58.858 91.3608 58.3239C91.946 57.7841 92.2386 57.1307 92.2386 56.3636C92.2386 55.7727 92.0881 55.2273 91.7869 54.7273C91.4858 54.2216 91.0568 53.8182 90.5 53.517C89.9432 53.2102 89.2841 53.0568 88.5227 53.0568H84.2273V59.125ZM84.2273 51.2159H88.1477C88.7841 51.2159 89.358 51.0909 89.8693 50.8409C90.3864 50.5909 90.7955 50.2386 91.0966 49.7841C91.4034 49.3295 91.5568 48.7955 91.5568 48.1818C91.5568 47.4148 91.2898 46.7642 90.7557 46.2301C90.2216 45.6903 89.375 45.4205 88.2159 45.4205H84.2273V51.2159ZM96.223 43.5455H98.6435L103.484 51.6932H103.689L108.53 43.5455H110.95L104.643 53.8068V61H102.53V53.8068L96.223 43.5455ZM113.377 58.767C112.957 58.767 112.596 58.6165 112.295 58.3153C111.994 58.0142 111.843 57.6534 111.843 57.233C111.843 56.8125 111.994 56.4517 112.295 56.1506C112.596 55.8494 112.957 55.6989 113.377 55.6989C113.798 55.6989 114.158 55.8494 114.46 56.1506C114.761 56.4517 114.911 56.8125 114.911 57.233C114.911 57.5114 114.84 57.767 114.698 58C114.562 58.233 114.377 58.4205 114.144 58.5625C113.917 58.6989 113.661 58.767 113.377 58.767ZM113.377 49.9375C112.957 49.9375 112.596 49.7869 112.295 49.4858C111.994 49.1847 111.843 48.8239 111.843 48.4034C111.843 47.983 111.994 47.6222 112.295 47.321C112.596 47.0199 112.957 46.8693 113.377 46.8693C113.798 46.8693 114.158 47.0199 114.46 47.321C114.761 47.6222 114.911 47.983 114.911 48.4034C114.911 48.6818 114.84 48.9375 114.698 49.1705C114.562 49.4034 114.377 49.5909 114.144 49.733C113.917 49.8693 113.661 49.9375 113.377 49.9375ZM125.543 61V43.5455H131.441C132.81 43.5455 133.93 43.7926 134.799 44.2869C135.674 44.7756 136.322 45.4375 136.742 46.2727C137.163 47.108 137.373 48.0398 137.373 49.0682C137.373 50.0966 137.163 51.0312 136.742 51.8722C136.327 52.7131 135.685 53.3835 134.816 53.8835C133.947 54.3778 132.833 54.625 131.475 54.625H127.248V52.75H131.407C132.344 52.75 133.097 52.5881 133.665 52.2642C134.234 51.9403 134.646 51.5028 134.901 50.9517C135.163 50.3949 135.293 49.767 135.293 49.0682C135.293 48.3693 135.163 47.7443 134.901 47.1932C134.646 46.642 134.231 46.2102 133.657 45.8977C133.083 45.5795 132.322 45.4205 131.373 45.4205H127.657V61H125.543ZM139.712 61H137.496L143.906 43.5455H146.087L152.496 61H150.281L145.065 46.3068H144.928L139.712 61ZM140.531 54.1818H149.462V56.0568H140.531V54.1818ZM155.215 61V43.5455H161.113C162.477 43.5455 163.596 43.7784 164.471 44.2443C165.346 44.7045 165.994 45.3381 166.414 46.1449C166.835 46.9517 167.045 47.8693 167.045 48.8977C167.045 49.9261 166.835 50.8381 166.414 51.6335C165.994 52.429 165.349 53.054 164.479 53.5085C163.61 53.9574 162.499 54.1818 161.147 54.1818H156.374V52.2727H161.079C162.011 52.2727 162.761 52.1364 163.329 51.8636C163.903 51.5909 164.317 51.2045 164.573 50.7045C164.835 50.1989 164.965 49.5966 164.965 48.8977C164.965 48.1989 164.835 47.5881 164.573 47.0653C164.312 46.5426 163.894 46.1392 163.32 45.8551C162.746 45.5653 161.988 45.4205 161.045 45.4205H157.329V61H155.215ZM163.431 53.1591L167.727 61H165.272L161.045 53.1591H163.431ZM171.283 61H169.067L175.476 43.5455H177.658L184.067 61H181.851L176.635 46.3068H176.499L171.283 61ZM172.101 54.1818H181.033V56.0568H172.101V54.1818ZM197.897 49C197.71 48.4261 197.462 47.9119 197.156 47.4574C196.854 46.9972 196.494 46.6051 196.073 46.2812C195.658 45.9574 195.187 45.7102 194.658 45.5398C194.13 45.3693 193.55 45.2841 192.92 45.2841C191.886 45.2841 190.945 45.5511 190.099 46.0852C189.252 46.6193 188.579 47.4062 188.079 48.446C187.579 49.4858 187.329 50.7614 187.329 52.2727C187.329 53.7841 187.582 55.0597 188.087 56.0994C188.593 57.1392 189.278 57.9261 190.141 58.4602C191.005 58.9943 191.977 59.2614 193.056 59.2614C194.056 59.2614 194.937 59.0483 195.698 58.6222C196.465 58.1903 197.062 57.5824 197.488 56.7983C197.92 56.0085 198.136 55.0795 198.136 54.0114L198.783 54.1477H193.533V52.2727H200.181V54.1477C200.181 55.5852 199.874 56.8352 199.261 57.8977C198.653 58.9602 197.812 59.7841 196.738 60.3693C195.67 60.9489 194.442 61.2386 193.056 61.2386C191.511 61.2386 190.153 60.875 188.982 60.1477C187.817 59.4205 186.908 58.3864 186.255 57.0455C185.607 55.7045 185.283 54.1136 185.283 52.2727C185.283 50.892 185.468 49.6506 185.837 48.5483C186.212 47.4403 186.741 46.4972 187.423 45.7188C188.104 44.9403 188.911 44.3438 189.843 43.929C190.775 43.5142 191.8 43.3068 192.92 43.3068C193.84 43.3068 194.698 43.446 195.494 43.7244C196.295 43.9972 197.008 44.3864 197.633 44.892C198.263 45.392 198.789 45.9915 199.21 46.6903C199.63 47.3835 199.92 48.1534 200.079 49H197.897ZM222.483 49C222.295 48.4261 222.048 47.9119 221.741 47.4574C221.44 46.9972 221.08 46.6051 220.659 46.2812C220.244 45.9574 219.773 45.7102 219.244 45.5398C218.716 45.3693 218.136 45.2841 217.506 45.2841C216.472 45.2841 215.531 45.5511 214.685 46.0852C213.838 46.6193 213.165 47.4062 212.665 48.446C212.165 49.4858 211.915 50.7614 211.915 52.2727C211.915 53.7841 212.168 55.0597 212.673 56.0994C213.179 57.1392 213.864 57.9261 214.727 58.4602C215.591 58.9943 216.563 59.2614 217.642 59.2614C218.642 59.2614 219.523 59.0483 220.284 58.6222C221.051 58.1903 221.648 57.5824 222.074 56.7983C222.506 56.0085 222.722 55.0795 222.722 54.0114L223.369 54.1477H218.119V52.2727H224.767V54.1477C224.767 55.5852 224.46 56.8352 223.847 57.8977C223.239 58.9602 222.398 59.7841 221.324 60.3693C220.256 60.9489 219.028 61.2386 217.642 61.2386C216.097 61.2386 214.739 60.875 213.568 60.1477C212.403 59.4205 211.494 58.3864 210.841 57.0455C210.193 55.7045 209.869 54.1136 209.869 52.2727C209.869 50.892 210.054 49.6506 210.423 48.5483C210.798 47.4403 211.327 46.4972 212.009 45.7188C212.69 44.9403 213.497 44.3438 214.429 43.929C215.361 43.5142 216.386 43.3068 217.506 43.3068C218.426 43.3068 219.284 43.446 220.08 43.7244C220.881 43.9972 221.594 44.3864 222.219 44.892C222.849 45.392 223.375 45.9915 223.795 46.6903C224.216 47.3835 224.506 48.1534 224.665 49H222.483ZM239.842 43.5455H241.955V55.1023C241.955 56.2955 241.674 57.3608 241.112 58.2983C240.555 59.2301 239.768 59.9659 238.751 60.5057C237.734 61.0398 236.54 61.3068 235.171 61.3068C233.802 61.3068 232.609 61.0398 231.592 60.5057C230.575 59.9659 229.785 59.2301 229.222 58.2983C228.665 57.3608 228.387 56.2955 228.387 55.1023V43.5455H230.501V54.9318C230.501 55.7841 230.688 56.5426 231.063 57.2074C231.438 57.8665 231.972 58.3864 232.665 58.767C233.364 59.142 234.2 59.3295 235.171 59.3295C236.143 59.3295 236.978 59.142 237.677 58.767C238.376 58.3864 238.91 57.8665 239.279 57.2074C239.654 56.5426 239.842 55.7841 239.842 54.9318V43.5455ZM246.176 61V43.5455H252.074C253.443 43.5455 254.563 43.7926 255.432 44.2869C256.307 44.7756 256.955 45.4375 257.375 46.2727C257.795 47.108 258.006 48.0398 258.006 49.0682C258.006 50.0966 257.795 51.0312 257.375 51.8722C256.96 52.7131 256.318 53.3835 255.449 53.8835C254.58 54.3778 253.466 54.625 252.108 54.625H247.881V52.75H252.04C252.977 52.75 253.73 52.5881 254.298 52.2642C254.866 51.9403 255.278 51.5028 255.534 50.9517C255.795 50.3949 255.926 49.767 255.926 49.0682C255.926 48.3693 255.795 47.7443 255.534 47.1932C255.278 46.642 254.864 46.2102 254.29 45.8977C253.716 45.5795 252.955 45.4205 252.006 45.4205H248.29V61H246.176ZM260.456 45.4205V43.5455H273.547V45.4205H268.058V61H265.945V45.4205H260.456ZM275.486 61H273.27L279.679 43.5455H281.861L288.27 61H286.054L280.838 46.3068H280.702L275.486 61ZM276.304 54.1818H285.236V56.0568H276.304V54.1818ZM298.182 52.2727C298.182 50.125 298.46 48.1506 299.017 46.3494C299.58 44.5426 300.381 42.8807 301.42 41.3636H303.193C302.784 41.9261 302.401 42.6193 302.043 43.4432C301.69 44.2614 301.381 45.1619 301.114 46.1449C300.847 47.1222 300.636 48.1335 300.483 49.179C300.335 50.2244 300.261 51.2557 300.261 52.2727C300.261 53.625 300.392 54.9972 300.653 56.3892C300.915 57.7812 301.267 59.0739 301.71 60.267C302.153 61.4602 302.648 62.4318 303.193 63.1818H301.42C300.381 61.6648 299.58 60.0057 299.017 58.2045C298.46 56.3977 298.182 54.4205 298.182 52.2727ZM306.127 61V59.4659L311.888 53.1591C312.565 52.4205 313.121 51.7784 313.559 51.233C313.996 50.6818 314.32 50.1648 314.531 49.6818C314.746 49.1932 314.854 48.6818 314.854 48.1477C314.854 47.5341 314.707 47.0028 314.411 46.554C314.121 46.1051 313.724 45.7585 313.218 45.5142C312.712 45.2699 312.144 45.1477 311.513 45.1477C310.843 45.1477 310.258 45.2869 309.758 45.5653C309.263 45.8381 308.88 46.2216 308.607 46.7159C308.34 47.2102 308.207 47.7898 308.207 48.4545H306.195C306.195 47.4318 306.431 46.5341 306.903 45.7614C307.374 44.9886 308.016 44.3864 308.829 43.9545C309.647 43.5227 310.565 43.3068 311.582 43.3068C312.604 43.3068 313.511 43.5227 314.3 43.9545C315.09 44.3864 315.71 44.9687 316.158 45.7017C316.607 46.4347 316.832 47.25 316.832 48.1477C316.832 48.7898 316.715 49.4176 316.482 50.0312C316.255 50.6392 315.857 51.3182 315.289 52.0682C314.727 52.8125 313.945 53.7216 312.945 54.7955L309.025 58.9886V59.125H317.138V61H306.127ZM326.556 61.2386C325.431 61.2386 324.428 61.0455 323.548 60.6591C322.673 60.2727 321.977 59.7358 321.46 59.0483C320.948 58.3551 320.67 57.5511 320.624 56.6364H322.772C322.817 57.1989 323.011 57.6847 323.352 58.0938C323.692 58.4972 324.138 58.8097 324.69 59.0312C325.241 59.2528 325.852 59.3636 326.522 59.3636C327.272 59.3636 327.937 59.233 328.516 58.9716C329.096 58.7102 329.55 58.3466 329.88 57.8807C330.21 57.4148 330.374 56.875 330.374 56.2614C330.374 55.6193 330.215 55.054 329.897 54.5653C329.579 54.071 329.113 53.6847 328.499 53.4062C327.886 53.1278 327.136 52.9886 326.249 52.9886H324.852V51.1136H326.249C326.942 51.1136 327.55 50.9886 328.073 50.7386C328.602 50.4886 329.013 50.1364 329.309 49.6818C329.61 49.2273 329.761 48.6932 329.761 48.0795C329.761 47.4886 329.63 46.9744 329.369 46.5369C329.107 46.0994 328.738 45.7585 328.261 45.5142C327.789 45.2699 327.232 45.1477 326.59 45.1477C325.988 45.1477 325.42 45.2585 324.886 45.4801C324.357 45.696 323.925 46.0114 323.59 46.4261C323.255 46.8352 323.073 47.3295 323.045 47.9091H320.999C321.033 46.9943 321.309 46.1932 321.826 45.5057C322.343 44.8125 323.019 44.2727 323.854 43.8864C324.695 43.5 325.619 43.3068 326.624 43.3068C327.704 43.3068 328.63 43.5256 329.403 43.9631C330.175 44.3949 330.769 44.9659 331.184 45.6761C331.599 46.3864 331.806 47.1534 331.806 47.9773C331.806 48.9602 331.548 49.7983 331.031 50.4915C330.519 51.1847 329.823 51.6648 328.942 51.9318V52.0682C330.045 52.25 330.906 52.7187 331.525 53.4744C332.144 54.2244 332.454 55.1534 332.454 56.2614C332.454 57.2102 332.195 58.0625 331.678 58.8182C331.167 59.5682 330.468 60.1591 329.582 60.5909C328.695 61.0227 327.687 61.2386 326.556 61.2386ZM341.633 61.2386C340.349 61.2386 339.255 60.8892 338.352 60.1903C337.448 59.4858 336.758 58.4659 336.281 57.1307C335.803 55.7898 335.565 54.1705 335.565 52.2727C335.565 50.3864 335.803 48.7756 336.281 47.4403C336.763 46.0994 337.457 45.0767 338.36 44.3722C339.269 43.6619 340.36 43.3068 341.633 43.3068C342.906 43.3068 343.994 43.6619 344.897 44.3722C345.806 45.0767 346.499 46.0994 346.977 47.4403C347.46 48.7756 347.701 50.3864 347.701 52.2727C347.701 54.1705 347.462 55.7898 346.985 57.1307C346.508 58.4659 345.817 59.4858 344.914 60.1903C344.011 60.8892 342.917 61.2386 341.633 61.2386ZM341.633 59.3636C342.906 59.3636 343.894 58.75 344.599 57.5227C345.303 56.2955 345.656 54.5455 345.656 52.2727C345.656 50.7614 345.494 49.4744 345.17 48.4119C344.852 47.3494 344.391 46.5398 343.789 45.983C343.192 45.4261 342.474 45.1477 341.633 45.1477C340.371 45.1477 339.386 45.7699 338.675 47.0142C337.965 48.2528 337.61 50.0057 337.61 52.2727C337.61 53.7841 337.769 55.0682 338.087 56.125C338.406 57.1818 338.863 57.9858 339.46 58.5369C340.062 59.0881 340.786 59.3636 341.633 59.3636ZM356.496 43.3068C357.212 43.3125 357.928 43.4489 358.644 43.7159C359.36 43.983 360.013 44.4261 360.604 45.0455C361.195 45.6591 361.67 46.4972 362.028 47.5597C362.386 48.6222 362.565 49.9545 362.565 51.5568C362.565 53.108 362.417 54.4858 362.121 55.6903C361.832 56.8892 361.411 57.9006 360.86 58.7244C360.315 59.5483 359.65 60.1733 358.866 60.5994C358.087 61.0256 357.207 61.2386 356.224 61.2386C355.246 61.2386 354.374 61.0455 353.607 60.6591C352.846 60.267 352.221 59.7244 351.732 59.0312C351.249 58.3324 350.94 57.5227 350.803 56.6023H352.883C353.07 57.4034 353.442 58.0653 353.999 58.5881C354.562 59.1051 355.303 59.3636 356.224 59.3636C357.57 59.3636 358.633 58.7756 359.411 57.5994C360.195 56.4233 360.587 54.7614 360.587 52.6136H360.451C360.133 53.0909 359.755 53.5028 359.317 53.8494C358.88 54.196 358.394 54.4631 357.86 54.6506C357.326 54.8381 356.758 54.9318 356.156 54.9318C355.156 54.9318 354.238 54.6847 353.403 54.1903C352.573 53.6903 351.908 53.0057 351.408 52.1364C350.914 51.2614 350.667 50.2614 350.667 49.1364C350.667 48.0682 350.906 47.0909 351.383 46.2045C351.866 45.3125 352.542 44.6023 353.411 44.0739C354.286 43.5455 355.315 43.2898 356.496 43.3068ZM356.496 45.1818C355.781 45.1818 355.136 45.3608 354.562 45.7188C353.994 46.071 353.542 46.5483 353.207 47.1506C352.877 47.7472 352.712 48.4091 352.712 49.1364C352.712 49.8636 352.871 50.5256 353.19 51.1222C353.513 51.7131 353.954 52.1847 354.511 52.5369C355.073 52.8835 355.712 53.0568 356.428 53.0568C356.968 53.0568 357.471 52.9517 357.937 52.7415C358.403 52.5256 358.809 52.233 359.156 51.8636C359.508 51.4886 359.783 51.0653 359.982 50.5938C360.181 50.1165 360.281 49.6193 360.281 49.1023C360.281 48.4205 360.116 47.7812 359.786 47.1847C359.462 46.5881 359.013 46.1051 358.44 45.7358C357.871 45.3665 357.224 45.1818 356.496 45.1818ZM371.371 61.2386C370.371 61.2386 369.47 61.0398 368.669 60.642C367.868 60.2443 367.226 59.6989 366.743 59.0057C366.26 58.3125 365.996 57.5227 365.95 56.6364H367.996C368.075 57.4261 368.433 58.0795 369.07 58.5966C369.712 59.108 370.479 59.3636 371.371 59.3636C372.087 59.3636 372.723 59.196 373.28 58.8608C373.842 58.5256 374.283 58.0653 374.601 57.4801C374.925 56.8892 375.087 56.2216 375.087 55.4773C375.087 54.7159 374.919 54.0369 374.584 53.4403C374.254 52.8381 373.8 52.3636 373.22 52.017C372.641 51.6705 371.979 51.4943 371.234 51.4886C370.7 51.483 370.152 51.5653 369.589 51.7358C369.027 51.9006 368.564 52.1136 368.2 52.375L366.223 52.1364L367.28 43.5455H376.348V45.4205H369.053L368.439 50.5682H368.541C368.899 50.2841 369.348 50.0483 369.888 49.8608C370.428 49.6733 370.99 49.5795 371.575 49.5795C372.643 49.5795 373.595 49.8352 374.43 50.3466C375.271 50.8523 375.93 51.5455 376.408 52.4261C376.891 53.3068 377.132 54.3125 377.132 55.4432C377.132 56.5568 376.882 57.5511 376.382 58.4261C375.888 59.2955 375.206 59.983 374.337 60.4886C373.467 60.9886 372.479 61.2386 371.371 61.2386ZM381.063 61L388.87 45.5568V45.4205H379.87V43.5455H391.052V45.5227L383.279 61H381.063ZM400.365 43.5455V61H398.251V45.7614H398.149L393.888 48.5909V46.4432L398.251 43.5455H400.365ZM404.976 57.4205V55.6818L412.646 43.5455H413.908V46.2386H413.055L407.26 55.4091V55.5455H417.589V57.4205H404.976ZM413.192 61V56.892V56.0824V43.5455H415.203V61H413.192ZM420.374 57.4205V55.6818L428.045 43.5455H429.306V46.2386H428.454L422.658 55.4091V55.5455H432.988V57.4205H420.374ZM428.59 61V56.892V56.0824V43.5455H430.602V61H428.59ZM440.511 52.2727C440.511 54.4205 440.23 56.3977 439.668 58.2045C439.111 60.0057 438.313 61.6648 437.273 63.1818H435.5C435.909 62.6193 436.29 61.9261 436.642 61.1023C437 60.2841 437.313 59.3864 437.58 58.4091C437.847 57.4261 438.054 56.4119 438.202 55.3665C438.355 54.3153 438.432 53.2841 438.432 52.2727C438.432 50.9205 438.301 49.5483 438.04 48.1562C437.778 46.7642 437.426 45.4716 436.983 44.2784C436.54 43.0852 436.045 42.1136 435.5 41.3636H437.273C438.313 42.8807 439.111 44.5426 439.668 46.3494C440.23 48.1506 440.511 50.125 440.511 52.2727ZM82.8295 97H80.6136L87.0227 79.5455H89.2045L95.6136 97H93.3977L88.1818 82.3068H88.0455L82.8295 97ZM83.6477 90.1818H92.5795V92.0568H83.6477V90.1818ZM95.3388 81.4205V79.5455H108.43V81.4205H102.941V97H100.827V81.4205H95.3388ZM111.692 97V79.5455H113.805V87.3182H123.112V79.5455H125.226V97H123.112V89.1932H113.805V97H111.692ZM130.173 97H127.957L134.366 79.5455H136.548L142.957 97H140.741L135.526 82.3068H135.389L130.173 97ZM130.991 90.1818H139.923V92.0568H130.991V90.1818ZM145.676 97V79.5455H151.574C152.938 79.5455 154.057 79.7784 154.932 80.2443C155.807 80.7045 156.455 81.3381 156.875 82.1449C157.295 82.9517 157.506 83.8693 157.506 84.8977C157.506 85.9261 157.295 86.8381 156.875 87.6335C156.455 88.429 155.81 89.054 154.94 89.5085C154.071 89.9574 152.96 90.1818 151.608 90.1818H146.835V88.2727H151.54C152.472 88.2727 153.222 88.1364 153.79 87.8636C154.364 87.5909 154.778 87.2045 155.034 86.7045C155.295 86.1989 155.426 85.5966 155.426 84.8977C155.426 84.1989 155.295 83.5881 155.034 83.0653C154.773 82.5426 154.355 82.1392 153.781 81.8551C153.207 81.5653 152.449 81.4205 151.506 81.4205H147.79V97H145.676ZM153.892 89.1591L158.188 97H155.733L151.506 89.1591H153.892ZM161.345 79.5455L166.527 94.2386H166.732L171.913 79.5455H174.129L167.72 97H165.538L159.129 79.5455H161.345ZM176.064 97H173.848L180.257 79.5455H182.439L188.848 97H186.632L181.416 82.3068H181.28L176.064 97ZM176.882 90.1818H185.814V92.0568H176.882V90.1818ZM198.317 79.5455H200.839L206.771 94.0341H206.976L212.908 79.5455H215.43V97H213.453V83.7386H213.283L207.828 97H205.919L200.464 83.7386H200.294V97H198.317V79.5455ZM221.782 79.5455V97H219.668V79.5455H221.782ZM235.565 83.9091C235.463 83.0455 235.048 82.375 234.321 81.8977C233.594 81.4205 232.702 81.1818 231.645 81.1818C230.872 81.1818 230.196 81.3068 229.616 81.5568C229.043 81.8068 228.594 82.1506 228.27 82.5881C227.952 83.0256 227.793 83.5227 227.793 84.0795C227.793 84.5455 227.903 84.946 228.125 85.2812C228.352 85.6108 228.642 85.8864 228.994 86.108C229.347 86.3239 229.716 86.5028 230.102 86.6449C230.489 86.7812 230.844 86.892 231.168 86.9773L232.94 87.4545C233.395 87.5739 233.901 87.7386 234.457 87.9489C235.02 88.1591 235.557 88.446 236.068 88.8097C236.585 89.1676 237.011 89.6278 237.347 90.1903C237.682 90.7528 237.849 91.4432 237.849 92.2614C237.849 93.2045 237.602 94.0568 237.108 94.8182C236.619 95.5795 235.903 96.1847 234.96 96.6335C234.023 97.0824 232.884 97.3068 231.543 97.3068C230.293 97.3068 229.21 97.1051 228.295 96.7017C227.386 96.2983 226.67 95.7358 226.148 95.0142C225.631 94.2926 225.338 93.4545 225.27 92.5H227.452C227.509 93.1591 227.73 93.7045 228.116 94.1364C228.509 94.5625 229.003 94.8807 229.599 95.0909C230.202 95.2955 230.849 95.3977 231.543 95.3977C232.349 95.3977 233.074 95.267 233.716 95.0057C234.358 94.7386 234.866 94.3693 235.241 93.8977C235.616 93.4205 235.804 92.8636 235.804 92.2273C235.804 91.6477 235.642 91.1761 235.318 90.8125C234.994 90.4489 234.568 90.1534 234.04 89.9261C233.511 89.6989 232.94 89.5 232.327 89.3295L230.179 88.7159C228.815 88.3239 227.736 87.7642 226.94 87.0369C226.145 86.3097 225.747 85.358 225.747 84.1818C225.747 83.2045 226.011 82.3523 226.54 81.625C227.074 80.892 227.79 80.3239 228.688 79.9205C229.591 79.5114 230.599 79.3068 231.713 79.3068C232.838 79.3068 233.838 79.5085 234.713 79.9119C235.588 80.3097 236.281 80.8551 236.793 81.5483C237.31 82.2415 237.582 83.0284 237.611 83.9091H235.565ZM241.325 97V79.5455H243.438V87.3182H252.745V79.5455H254.859V97H252.745V89.1932H243.438V97H241.325ZM259.09 97V79.5455H264.988C266.352 79.5455 267.471 79.7784 268.346 80.2443C269.221 80.7045 269.869 81.3381 270.289 82.1449C270.71 82.9517 270.92 83.8693 270.92 84.8977C270.92 85.9261 270.71 86.8381 270.289 87.6335C269.869 88.429 269.224 89.054 268.354 89.5085C267.485 89.9574 266.374 90.1818 265.022 90.1818H260.249V88.2727H264.954C265.886 88.2727 266.636 88.1364 267.204 87.8636C267.778 87.5909 268.192 87.2045 268.448 86.7045C268.71 86.1989 268.84 85.5966 268.84 84.8977C268.84 84.1989 268.71 83.5881 268.448 83.0653C268.187 82.5426 267.769 82.1392 267.195 81.8551C266.621 81.5653 265.863 81.4205 264.92 81.4205H261.204V97H259.09ZM267.306 89.1591L271.602 97H269.147L264.92 89.1591H267.306ZM275.158 97H272.942L279.351 79.5455H281.533L287.942 97H285.726L280.51 82.3068H280.374L275.158 97ZM275.976 90.1818H284.908V92.0568H275.976V90.1818ZM297.854 88.2727C297.854 86.125 298.132 84.1506 298.689 82.3494C299.251 80.5426 300.053 78.8807 301.092 77.3636H302.865C302.456 77.9261 302.072 78.6193 301.714 79.4432C301.362 80.2614 301.053 81.1619 300.786 82.1449C300.518 83.1222 300.308 84.1335 300.155 85.179C300.007 86.2244 299.933 87.2557 299.933 88.2727C299.933 89.625 300.064 90.9972 300.325 92.3892C300.587 93.7812 300.939 95.0739 301.382 96.267C301.825 97.4602 302.32 98.4318 302.865 99.1818H301.092C300.053 97.6648 299.251 96.0057 298.689 94.2045C298.132 92.3977 297.854 90.4205 297.854 88.2727ZM305.799 97V95.4659L311.56 89.1591C312.237 88.4205 312.793 87.7784 313.231 87.233C313.668 86.6818 313.992 86.1648 314.202 85.6818C314.418 85.1932 314.526 84.6818 314.526 84.1477C314.526 83.5341 314.379 83.0028 314.083 82.554C313.793 82.1051 313.396 81.7585 312.89 81.5142C312.384 81.2699 311.816 81.1477 311.185 81.1477C310.515 81.1477 309.93 81.2869 309.43 81.5653C308.935 81.8381 308.552 82.2216 308.279 82.7159C308.012 83.2102 307.879 83.7898 307.879 84.4545H305.867C305.867 83.4318 306.103 82.5341 306.575 81.7614C307.046 80.9886 307.688 80.3864 308.501 79.9545C309.319 79.5227 310.237 79.3068 311.254 79.3068C312.276 79.3068 313.183 79.5227 313.972 79.9545C314.762 80.3864 315.381 80.9687 315.83 81.7017C316.279 82.4347 316.504 83.25 316.504 84.1477C316.504 84.7898 316.387 85.4176 316.154 86.0312C315.927 86.6392 315.529 87.3182 314.961 88.0682C314.398 88.8125 313.617 89.7216 312.617 90.7955L308.697 94.9886V95.125H316.81V97H305.799ZM326.228 97.2386C325.103 97.2386 324.1 97.0455 323.219 96.6591C322.344 96.2727 321.648 95.7358 321.131 95.0483C320.62 94.3551 320.342 93.5511 320.296 92.6364H322.444C322.489 93.1989 322.683 93.6847 323.023 94.0938C323.364 94.4972 323.81 94.8097 324.362 95.0312C324.913 95.2528 325.523 95.3636 326.194 95.3636C326.944 95.3636 327.609 95.233 328.188 94.9716C328.768 94.7102 329.222 94.3466 329.552 93.8807C329.881 93.4148 330.046 92.875 330.046 92.2614C330.046 91.6193 329.887 91.054 329.569 90.5653C329.251 90.071 328.785 89.6847 328.171 89.4062C327.558 89.1278 326.808 88.9886 325.921 88.9886H324.523V87.1136H325.921C326.614 87.1136 327.222 86.9886 327.745 86.7386C328.273 86.4886 328.685 86.1364 328.981 85.6818C329.282 85.2273 329.433 84.6932 329.433 84.0795C329.433 83.4886 329.302 82.9744 329.04 82.5369C328.779 82.0994 328.41 81.7585 327.933 81.5142C327.461 81.2699 326.904 81.1477 326.262 81.1477C325.66 81.1477 325.092 81.2585 324.558 81.4801C324.029 81.696 323.597 82.0114 323.262 82.4261C322.927 82.8352 322.745 83.3295 322.717 83.9091H320.671C320.705 82.9943 320.981 82.1932 321.498 81.5057C322.015 80.8125 322.691 80.2727 323.526 79.8864C324.367 79.5 325.29 79.3068 326.296 79.3068C327.376 79.3068 328.302 79.5256 329.075 79.9631C329.847 80.3949 330.441 80.9659 330.856 81.6761C331.271 82.3864 331.478 83.1534 331.478 83.9773C331.478 84.9602 331.219 85.7983 330.702 86.4915C330.191 87.1847 329.495 87.6648 328.614 87.9318V88.0682C329.717 88.25 330.577 88.7187 331.197 89.4744C331.816 90.2244 332.126 91.1534 332.126 92.2614C332.126 93.2102 331.867 94.0625 331.35 94.8182C330.839 95.5682 330.14 96.1591 329.254 96.5909C328.367 97.0227 327.359 97.2386 326.228 97.2386ZM341.305 97.2386C340.021 97.2386 338.927 96.8892 338.023 96.1903C337.12 95.4858 336.43 94.4659 335.952 93.1307C335.475 91.7898 335.237 90.1705 335.237 88.2727C335.237 86.3864 335.475 84.7756 335.952 83.4403C336.435 82.0994 337.129 81.0767 338.032 80.3722C338.941 79.6619 340.032 79.3068 341.305 79.3068C342.577 79.3068 343.665 79.6619 344.569 80.3722C345.478 81.0767 346.171 82.0994 346.648 83.4403C347.131 84.7756 347.373 86.3864 347.373 88.2727C347.373 90.1705 347.134 91.7898 346.657 93.1307C346.18 94.4659 345.489 95.4858 344.586 96.1903C343.683 96.8892 342.589 97.2386 341.305 97.2386ZM341.305 95.3636C342.577 95.3636 343.566 94.75 344.271 93.5227C344.975 92.2955 345.327 90.5455 345.327 88.2727C345.327 86.7614 345.165 85.4744 344.842 84.4119C344.523 83.3494 344.063 82.5398 343.461 81.983C342.864 81.4261 342.146 81.1477 341.305 81.1477C340.043 81.1477 339.058 81.7699 338.347 83.0142C337.637 84.2528 337.282 86.0057 337.282 88.2727C337.282 89.7841 337.441 91.0682 337.759 92.125C338.077 93.1818 338.535 93.9858 339.131 94.5369C339.734 95.0881 340.458 95.3636 341.305 95.3636ZM356.168 79.3068C356.884 79.3125 357.6 79.4489 358.316 79.7159C359.032 79.983 359.685 80.4261 360.276 81.0455C360.867 81.6591 361.342 82.4972 361.7 83.5597C362.058 84.6222 362.237 85.9545 362.237 87.5568C362.237 89.108 362.089 90.4858 361.793 91.6903C361.504 92.8892 361.083 93.9006 360.532 94.7244C359.987 95.5483 359.322 96.1733 358.538 96.5994C357.759 97.0256 356.879 97.2386 355.896 97.2386C354.918 97.2386 354.046 97.0455 353.279 96.6591C352.518 96.267 351.893 95.7244 351.404 95.0312C350.921 94.3324 350.612 93.5227 350.475 92.6023H352.555C352.742 93.4034 353.114 94.0653 353.671 94.5881C354.234 95.1051 354.975 95.3636 355.896 95.3636C357.242 95.3636 358.305 94.7756 359.083 93.5994C359.867 92.4233 360.259 90.7614 360.259 88.6136H360.123C359.805 89.0909 359.427 89.5028 358.989 89.8494C358.552 90.196 358.066 90.4631 357.532 90.6506C356.998 90.8381 356.43 90.9318 355.827 90.9318C354.827 90.9318 353.91 90.6847 353.075 90.1903C352.245 89.6903 351.58 89.0057 351.08 88.1364C350.586 87.2614 350.339 86.2614 350.339 85.1364C350.339 84.0682 350.577 83.0909 351.055 82.2045C351.538 81.3125 352.214 80.6023 353.083 80.0739C353.958 79.5455 354.987 79.2898 356.168 79.3068ZM356.168 81.1818C355.452 81.1818 354.808 81.3608 354.234 81.7188C353.665 82.071 353.214 82.5483 352.879 83.1506C352.549 83.7472 352.384 84.4091 352.384 85.1364C352.384 85.8636 352.543 86.5256 352.862 87.1222C353.185 87.7131 353.626 88.1847 354.183 88.5369C354.745 88.8835 355.384 89.0568 356.1 89.0568C356.64 89.0568 357.143 88.9517 357.609 88.7415C358.075 88.5256 358.481 88.233 358.827 87.8636C359.18 87.4886 359.455 87.0653 359.654 86.5938C359.853 86.1165 359.952 85.6193 359.952 85.1023C359.952 84.4205 359.788 83.7812 359.458 83.1847C359.134 82.5881 358.685 82.1051 358.112 81.7358C357.543 81.3665 356.896 81.1818 356.168 81.1818ZM371.043 97.2386C370.043 97.2386 369.142 97.0398 368.341 96.642C367.54 96.2443 366.898 95.6989 366.415 95.0057C365.932 94.3125 365.668 93.5227 365.622 92.6364H367.668C367.747 93.4261 368.105 94.0795 368.741 94.5966C369.384 95.108 370.151 95.3636 371.043 95.3636C371.759 95.3636 372.395 95.196 372.952 94.8608C373.514 94.5256 373.955 94.0653 374.273 93.4801C374.597 92.8892 374.759 92.2216 374.759 91.4773C374.759 90.7159 374.591 90.0369 374.256 89.4403C373.926 88.8381 373.472 88.3636 372.892 88.017C372.313 87.6705 371.651 87.4943 370.906 87.4886C370.372 87.483 369.824 87.5653 369.261 87.7358C368.699 87.9006 368.236 88.1136 367.872 88.375L365.895 88.1364L366.952 79.5455H376.02V81.4205H368.724L368.111 86.5682H368.213C368.571 86.2841 369.02 86.0483 369.56 85.8608C370.099 85.6733 370.662 85.5795 371.247 85.5795C372.315 85.5795 373.267 85.8352 374.102 86.3466C374.943 86.8523 375.602 87.5455 376.08 88.4261C376.562 89.3068 376.804 90.3125 376.804 91.4432C376.804 92.5568 376.554 93.5511 376.054 94.4261C375.56 95.2955 374.878 95.983 374.009 96.4886C373.139 96.9886 372.151 97.2386 371.043 97.2386ZM380.735 97L388.542 81.5568V81.4205H379.542V79.5455H390.724V81.5227L382.951 97H380.735ZM400.037 79.5455V97H397.923V81.7614H397.821L393.56 84.5909V82.4432L397.923 79.5455H400.037ZM410.955 97.2386C409.83 97.2386 408.827 97.0455 407.946 96.6591C407.071 96.2727 406.375 95.7358 405.858 95.0483C405.347 94.3551 405.068 93.5511 405.023 92.6364H407.17C407.216 93.1989 407.409 93.6847 407.75 94.0938C408.091 94.4972 408.537 94.8097 409.088 95.0312C409.639 95.2528 410.25 95.3636 410.92 95.3636C411.67 95.3636 412.335 95.233 412.915 94.9716C413.494 94.7102 413.949 94.3466 414.278 93.8807C414.608 93.4148 414.773 92.875 414.773 92.2614C414.773 91.6193 414.614 91.054 414.295 90.5653C413.977 90.071 413.511 89.6847 412.898 89.4062C412.284 89.1278 411.534 88.9886 410.648 88.9886H409.25V87.1136H410.648C411.341 87.1136 411.949 86.9886 412.472 86.7386C413 86.4886 413.412 86.1364 413.707 85.6818C414.009 85.2273 414.159 84.6932 414.159 84.0795C414.159 83.4886 414.028 82.9744 413.767 82.5369C413.506 82.0994 413.136 81.7585 412.659 81.5142C412.188 81.2699 411.631 81.1477 410.989 81.1477C410.386 81.1477 409.818 81.2585 409.284 81.4801C408.756 81.696 408.324 82.0114 407.989 82.4261C407.653 82.8352 407.472 83.3295 407.443 83.9091H405.398C405.432 82.9943 405.707 82.1932 406.224 81.5057C406.741 80.8125 407.418 80.2727 408.253 79.8864C409.094 79.5 410.017 79.3068 411.023 79.3068C412.102 79.3068 413.028 79.5256 413.801 79.9631C414.574 80.3949 415.168 80.9659 415.582 81.6761C415.997 82.3864 416.205 83.1534 416.205 83.9773C416.205 84.9602 415.946 85.7983 415.429 86.4915C414.918 87.1847 414.222 87.6648 413.341 87.9318V88.0682C414.443 88.25 415.304 88.7187 415.923 89.4744C416.543 90.2244 416.852 91.1534 416.852 92.2614C416.852 93.2102 416.594 94.0625 416.077 94.8182C415.565 95.5682 414.866 96.1591 413.98 96.5909C413.094 97.0227 412.085 97.2386 410.955 97.2386ZM419.929 93.4205V91.6818L427.599 79.5455H428.861V82.2386H428.009L422.213 91.4091V91.5455H432.543V93.4205H419.929ZM428.145 97V92.892V92.0824V79.5455H430.156V97H428.145ZM440.066 88.2727C440.066 90.4205 439.785 92.3977 439.222 94.2045C438.665 96.0057 437.867 97.6648 436.827 99.1818H435.055C435.464 98.6193 435.844 97.9261 436.197 97.1023C436.555 96.2841 436.867 95.3864 437.134 94.4091C437.401 93.4261 437.609 92.4119 437.756 91.3665C437.91 90.3153 437.987 89.2841 437.987 88.2727C437.987 86.9205 437.856 85.5483 437.594 84.1562C437.333 82.7642 436.981 81.4716 436.538 80.2784C436.094 79.0852 435.6 78.1136 435.055 77.3636H436.827C437.867 78.8807 438.665 80.5426 439.222 82.3494C439.785 84.1506 440.066 86.125 440.066 88.2727Z" fill="white"/>
<line x1="80" y1="0.5" x2="1360" y2="0.500112" stroke="#E6E6E6"/>
</g>
<defs>
<clipPath id="clip0_1_9696">
<rect width="1308" height="264" fill="white"/>
</clipPath>
</defs>
</svg>
